<svg enable-background="new 0 0 315.12 263.03" viewBox="0 0 315.12 263.03" xmlns="http://www.w3.org/2000/svg" xmlns:xlink="http://www.w3.org/1999/xlink"><linearGradient id="a" gradientTransform="matrix(0 1 -1 0 1219.4166 -3810.771)" gradientUnits="userSpaceOnUse" x1="3843.5127" x2="4130.5469" y1="1134.9874" y2="1140.1748"><stop offset=".0861" stop-color="#fff"/><stop offset=".1705" stop-color="#f6fefc"/><stop offset=".3058" stop-color="#dffbf5"/><stop offset=".4749" stop-color="#b9f5ea"/><stop offset=".6694" stop-color="#85eeda"/><stop offset=".7653" stop-color="#68ead1"/></linearGradient><linearGradient id="b" gradientUnits="userSpaceOnUse" x1="141.1487" x2="84.6343" y1="48.9113" y2="99.0758"><stop offset=".0974" stop-color="#fff" stop-opacity="0"/><stop offset=".3067" stop-color="#fef7f6" stop-opacity=".2696"/><stop offset=".6406" stop-color="#fae0df" stop-opacity=".6997"/><stop offset=".8737" stop-color="#f7cdcb"/></linearGradient><circle cx="81.88" cy="173.62" fill="url(#a)" r="80.85"/><path d="m104.58 51.14c-12.54 0-22.7 10.16-22.7 22.7 0 22.7 22.7 45.4 22.7 45.4s22.7-22.7 22.7-45.4c0-12.53-10.16-22.7-22.7-22.7zm0 28.38c-3.13 0-5.68-2.54-5.68-5.68 0-3.13 2.54-5.68 5.68-5.68 3.13 0 5.68 2.54 5.68 5.68s-2.54 5.68-5.68 5.68z" fill="url(#b)"/><g fill="none" stroke-miterlimit="10" stroke-width="3"><path d="m306.12 59.17v18" stroke="#f7cdcb"/><path d="m297.12 68.17h18" stroke="#f7cdcb"/><path d="m256.02 0v18" stroke="#69ead1"/><path d="m247.02 9h18" stroke="#69ead1"/></g></svg>