<svg enable-background="new 0 0 154.05 217.7" viewBox="0 0 154.05 217.7" xmlns="http://www.w3.org/2000/svg" xmlns:xlink="http://www.w3.org/1999/xlink"><linearGradient id="a" gradientTransform="matrix(0 1 -1 0 906.3773 -4558.5098)" gradientUnits="userSpaceOnUse" x1="4643.2202" x2="4752.812" y1="782.2207" y2="784.2013"><stop offset=".0861" stop-color="#fff"/><stop offset=".2692" stop-color="#fef7f6"/><stop offset=".5613" stop-color="#fae0df"/><stop offset=".7653" stop-color="#f7cdcb"/></linearGradient><linearGradient id="b" gradientUnits="userSpaceOnUse" x1="159.75" x2="103.2356" y1="57.0843" y2="107.2488"><stop offset=".0974" stop-color="#fff" stop-opacity="0"/><stop offset=".3067" stop-color="#fef7f6" stop-opacity=".2696"/><stop offset=".6406" stop-color="#fae0df" stop-opacity=".6997"/><stop offset=".8737" stop-color="#f7cdcb"/></linearGradient><circle cx="123.18" cy="138.5" fill="url(#a)" r="30.87"/><path d="m123.18 59.32c-12.54 0-22.7 10.16-22.7 22.7 0 22.7 22.7 45.4 22.7 45.4s22.7-22.7 22.7-45.4c0-12.54-10.16-22.7-22.7-22.7zm0 28.37c-3.13 0-5.68-2.54-5.68-5.68s2.54-5.68 5.68-5.68c3.13 0 5.68 2.54 5.68 5.68s-2.54 5.68-5.68 5.68z" fill="url(#b)"/><g fill="none" stroke="#69ead1" stroke-miterlimit="10" stroke-width="3"><path d="m8.99 0v17.98"/><path d="m0 8.99h17.98"/><path d="m137.85 199.72v17.98"/><path d="m128.86 208.71h17.98"/></g></svg>