<svg height="478" viewBox="0 0 663 478" width="663" xmlns="http://www.w3.org/2000/svg" xmlns:xlink="http://www.w3.org/1999/xlink"><linearGradient id="a"><stop offset=".0861" stop-color="#fff"/><stop offset=".2692" stop-color="#fef7f6"/><stop offset=".5613" stop-color="#fae0df"/><stop offset=".7653" stop-color="#f7cdcb"/></linearGradient><linearGradient id="b" x1="51.930354%" x2="46.699741%" xlink:href="#a" y1="1.360515%" y2="134.010989%"/><linearGradient id="c" x1="52.135017%" x2="46.904096%" xlink:href="#a" y1="1.283188%" y2="133.941484%"/><linearGradient id="d" x1="-34.221977%" x2="98.522713%" y1="50.002839%" y2="50.002839%"><stop offset=".2088" stop-color="#fff"/><stop offset=".388" stop-color="#fef7f6"/><stop offset=".674" stop-color="#fae0df"/><stop offset=".8737" stop-color="#f7cdcb"/></linearGradient><linearGradient id="e" x1="130.540902%" x2="6.059389%" xlink:href="#a" y1="-3.2754%" y2="70.387773%"/><linearGradient id="f"><stop offset=".2088" stop-color="#fff"/><stop offset=".2914" stop-color="#f6fefc"/><stop offset=".4239" stop-color="#dffbf5"/><stop offset=".5894" stop-color="#b9f5ea"/><stop offset=".7799" stop-color="#85eeda"/><stop offset=".8737" stop-color="#68ead1"/></linearGradient><linearGradient id="g" x1="130.545183%" x2="6.055501%" xlink:href="#f" y1="-3.279651%" y2="70.383815%"/><linearGradient id="h" x1="130.540585%" x2="6.063677%" xlink:href="#f" y1="-3.280038%" y2="70.380397%"/><linearGradient id="i" x1="130.519751%" x2="6.0625%" xlink:href="#f" y1="-3.274941%" y2="70.387155%"/><linearGradient id="j" x1="98.596679%" x2="-34.029928%" xlink:href="#a" y1="52.078889%" y2="46.849217%"/><g fill="none" fill-rule="evenodd"><circle cx="312.822463" cy="284.010698" fill="url(#b)" r="193.58759"/><circle cx="570.208034" cy="412.9663" fill="url(#c)" r="10.386533"/><circle cx="629.233256" cy="56.936702" fill="url(#d)" r="33.325211"/><path d="m172.78649 118.393858c-13.295042 0-24.074048 10.779007-24.074048 24.074049 0 24.074049 24.074048 48.148097 24.074048 48.148097s24.074049-24.074048 24.074049-48.148097c0-13.295042-10.779006-24.074049-24.074049-24.074049zm0 30.094313c-3.322008 0-6.020264-2.691247-6.020264-6.020264s2.691248-6.020264 6.020264-6.020264c3.329017 0 6.020265 2.691247 6.020265 6.020264s-2.698256 6.020264-6.020265 6.020264z" fill="url(#e)" fill-rule="nonzero"/><path d="m284.767611 9.81183932c-20.822125 0-37.698488 16.87636368-37.698488 37.69848838 0 37.6984884 37.698488 75.4039853 37.698488 75.4039853s37.698488-37.6984885 37.698488-75.4039853c0-20.8221247-16.876363-37.69848838-37.698488-37.69848838zm0 47.12486258c-5.207283 0-9.426374-4.2190909-9.426374-9.4263742s4.219091-9.4263742 9.426374-9.4263742 9.426374 4.2190909 9.426374 9.4263742-4.219091 9.4263742-9.426374 9.4263742z" fill="url(#g)" fill-rule="nonzero"/><g stroke-width="3"><g stroke="#69ead1" transform="translate(57.469345 93.913319)"><path d="m6.85427061.46255814v12.61522196"/><path d="m.54665962 6.77016913h12.61522198"/></g><g stroke="#69ead1" transform="translate(563.479915 259.312896)"><path d="m6.72811839.03504228v12.60120512"/><path d="m.42751586 6.33564482h12.60120504"/></g><g stroke="#f7cdcb" transform="translate(546.659619 3.504228)"><path d="m6.45478858.00700846v12.60120504"/><path d="m.15418605 6.30761099h12.60120505"/></g></g><path d="m346.960655 212.314186c-17.598234 0-31.867452 14.269218-31.867452 31.867452 0 31.867453 31.867452 63.734905 31.867452 63.734905s31.867453-31.867452 31.867453-63.734905c0-17.598234-14.269218-31.867452-31.867453-31.867452zm0 39.836068c-4.40131 0-7.968615-3.567305-7.968615-7.968616 0-4.40131 3.567305-7.968615 7.968615-7.968615 4.401311 0 7.968616 3.567305 7.968616 7.968615 0 4.401311-3.567305 7.968616-7.968616 7.968616z" fill="url(#h)" fill-rule="nonzero"/><path d="m635.70907.09811839c-7.148626 0-12.951628 5.79599366-12.951628 12.95162791 0 12.9516279 12.951628 25.8962474 12.951628 25.8962474s12.951628-12.9516279 12.951628-25.8962474c-.007009-7.15563425-5.803002-12.95162791-12.951628-12.95162791zm0 16.18953491c-1.787157 0-3.237907-1.4507506-3.237907-3.237907s1.45075-3.23790698 3.237907-3.23790698c1.787156 0 3.237907 1.45075058 3.237907 3.23790698s-1.450751 3.237907-3.237907 3.237907z" fill="url(#i)" fill-rule="nonzero"/><circle cx="17.52815" cy="336.980613" fill="url(#j)" r="17.310888"/></g></svg>