<svg enable-background="new 0 0 292.6 181.68" viewBox="0 0 292.6 181.68" xmlns="http://www.w3.org/2000/svg" xmlns:xlink="http://www.w3.org/1999/xlink"><radialGradient id="a" cx="148.2831" cy="191.833" gradientUnits="userSpaceOnUse" r="166.9783"><stop offset=".3334" stop-color="#fff" stop-opacity=".25"/><stop offset=".6709" stop-color="#fff" stop-opacity="0"/></radialGradient><radialGradient id="b" cx="143.7373" cy="184.0126" gradientUnits="userSpaceOnUse" r="168.0566"><stop offset=".3334" stop-color="#fff" stop-opacity=".25"/><stop offset=".7013" stop-color="#fff" stop-opacity="0"/></radialGradient><path d="m103.6 53.07c-23.58-23.58-61.82-23.58-85.41 0-23.58 23.58-23.58 61.82 0 85.41 42.7 42.7 128.11 42.7 128.11 42.7s0-85.41-42.7-128.11z" fill="#005253"/><circle cx="60.89" cy="95.77" fill="#fff" opacity=".4" r="15.1"/><path d="m146.3 0c-33.35 0-60.39 27.04-60.39 60.39 0 60.39 60.39 120.78 60.39 120.78s60.39-60.39 60.39-120.78c0-33.35-27.04-60.39-60.39-60.39z" fill="#ea7363"/><circle cx="146.3" cy="60.39" fill="#fff" opacity=".4" r="15.1"/><path d="m274.41 53.07c-23.58-23.58-61.82-23.58-85.41 0-42.7 42.7-42.7 128.11-42.7 128.11s85.41 0 128.11-42.7c23.59-23.59 23.59-61.83 0-85.41z" fill="#06b594"/><circle cx="231.71" cy="95.77" fill="#fff" opacity=".4" r="15.1"/><path d="m88.72 42.16c-1.82 5.75-2.81 11.88-2.81 18.23 0 60.39 60.39 120.78 60.39 120.78s0-85.41-42.7-128.11c-4.5-4.49-9.53-8.12-14.88-10.9z" fill="url(#a)"/><path d="m203.88 42.16c-5.36 2.78-10.39 6.41-14.88 10.91-42.7 42.7-42.7 128.11-42.7 128.11s60.39-60.39 60.39-120.78c0-6.36-.99-12.49-2.81-18.24z" fill="url(#b)"/></svg>