<svg height="79" viewBox="0 0 583 79" width="583" xmlns="http://www.w3.org/2000/svg"><g fill="#fff" fill-rule="evenodd"><path d="m204.774479 14-9.124361 32.7802404h-.153673l-11.02607-32.7802404h-9.94075l-11.02607 32.7802404h-.144069l-9.133965-32.7802404h-13.225521l17.173007 51h10.007983l11.246976-33.0771976h.144068l11.25658 33.0771976h10.007983l17.163403-51z"/><path d="m231.966299 30c-10.908029 0-18.966299 7.1672902-18.966299 18s8.05827 18 18.966299 18c10.98505 0 19.033692-7.1672902 19.033692-18 .009628-10.8327098-8.048642-18-19.033692-18zm0 25.89845c-4.390169 0-7.904229-3.0689471-7.904229-7.89845s3.51406-7.89845 7.904229-7.89845c4.467189 0 7.904229 3.0689471 7.904229 7.89845s-3.43704 7.89845-7.904229 7.89845z" fill-rule="nonzero"/><path d="m277.177643 30c-4.784173 0-8.764527 2.2767365-11.12756 6.241731h-.145268v-5.1323043h-10.904815v33.8905733h11.127559v-17.0272878c0-6.0198456 2.798838-8.2194046 6.556448-8.2194046 4.125622 0 6.26591 2.2767365 6.26591 7.3415105v17.9051819h11.050083v-20.9826351c0-9.6857772-5.307139-14.0173649-12.822357-14.0173649z"/><path d="m320.024133 35.8881942h-.143288c-2.111111-3.4233174-5.521368-5.6704671-10.966315-5.6704671-8.721468 0-15.91453 6.1103347-15.91453 17.8911365 0 11.7808017 7.193062 17.8911364 15.91453 17.8911364 5.444947 0 8.864756-2.256712 10.966315-5.6704671h.143288v4.5803604h10.975867v-50.9098933h-10.975867zm-8.062343 20.0713497c-4.355958 0-7.699347-3.0503861-7.699347-7.8506803 0-4.8002943 3.343389-7.8506804 7.699347-7.8506804 4.432378 0 7.775767 3.0503861 7.775767 7.8506804 0 4.8002942-3.343389 7.8506803-7.775767 7.8506803z" fill-rule="nonzero"/><path d="m353.538633 30c-10.20567 0-17.538633 6.6698795-17.538633 18.1108434 0 10.7759036 7.399111 17.8891566 18.5403 17.8891566 5.679266 0 10.20567-1.7638554 13.730406-3.9614458l-3.949972-8.3566265c-2.078933 1.3975904-5.603669 3.0746988-9.629239 3.0746988-4.460255 0-7.758199-1.9084337-8.485825-6.1590361h23.79433v-2.4963856c0-12.2313253-6.473041-18.1012048-16.461367-18.1012048zm-7.257366 14.0819277c.500834-4.3951807 3.231796-6.2361446 6.898277-6.2361446 3.524736 0 6.1801 2.2746988 6.321846 6.2361446z" fill-rule="nonzero"/><path d="m384.78728 38.7183099h-.141814v-6.7136151h-10.645466v32.9953052h10.853459v-12.1408451c0-8.4225352 2.949721-11.0704225 10.210572-11.0704225h.935969v-10.7887324h-.217447c-5.2471 0-9.057155 2.2910798-10.995273 7.7183099z"/><path d="m419.203157 14h-18.203157v51h11.289596v-17.4917355h6.923137c12.888716 0 18.787267-7.2131856 18.787267-17.1947784-.009576-9.1769346-5.908126-16.3134861-18.796843-16.3134861zm-.947981 23.3159279h-5.975155v-13.0469572h5.975155c4.663302 0 7.717909 1.8200601 7.717909 6.2648385 0 4.5214124-3.054607 6.7821187-7.717909 6.7821187z" fill-rule="nonzero"/><path d="m452.782646 38.7183099h-.141753v-6.7136151h-10.640893v32.9953052h10.858247v-12.1408451c0-8.4225352 2.948454-11.0704225 10.206186-11.0704225h.935567v-10.7887324h-.217354c-5.244845 0-9.053265 2.2910798-11 7.7183099z"/><path d="m483.961499 30c-10.905268 0-18.961499 7.1672902-18.961499 18s8.056231 18 18.961499 18c10.98227 0 19.038501-7.1672902 19.038501-18-.009625-10.8327098-8.056231-18-19.038501-18zm0 25.89845c-4.389057 0-7.902228-3.0689471-7.902228-7.89845s3.513171-7.89845 7.902228-7.89845c4.466059 0 7.902229 3.0689471 7.902229 7.89845s-3.43617 7.89845-7.902229 7.89845z" fill-rule="nonzero"/><path d="m540.773181 32h-12.658107l-6.077033 8.7148549-6.153115-8.7148549h-12.658107l12.154065 15.7111554-13.380884 17.2888446h12.582026l7.456015-10.2831531 7.370423 10.2831531h12.591536l-13.380884-17.2888446z"/><path d="m571.869233 31-8.357638 18.485005-7.860388-18.485005h-12.651207l15.051399 30.3062562-8.434139 17.6937438h11.054268l22.328472-48z"/><g fill-rule="nonzero"><path d="m33.7039515 22.5569345c0-2.3467673.2878425-4.6264842.8059589-6.8199932-9.067037-3.5440976-19.7747759-1.6666837-27.10516352 5.6513988-9.87299584 9.8564228-9.87299584 25.8431764 0 35.6995992.31662668.3256738.65244287.6321903.98825905.9291282 15.86971347 14.9714177 39.29049367 16.8584102 48.60699407 16.9829325-8.3762151-9.2529683-22.6148214-28.2378369-23.2576695-50.8817469-.0287842-.5172466-.038379-1.0344933-.038379-1.5613186zm-3.9530362 21.1400631c-2.4658503 2.461711-6.4668603 2.461711-8.9423053 0s-2.4658502-6.4560048 0-8.9272944c2.4658503-2.4617111 6.4668603-2.4617111 8.9423053 0 2.475445 2.4712896 2.475445 6.4655834 0 8.9272944z"/><path d="m40 23.2361897c0 .4017785.009559.8131232.0382359 1.2531663v.0765292.0765292c.56398 20.1558879 13.2869868 37.537591 21.1062351 46.3575856.0955898-9.8627055 2.0265045-35.4139046 18.3341299-52.6808138.3250054-.3635139.6595699-.7174616 1.0036933-1.0618432 1.108842-1.1096739 2.284597-2.0854217 3.5177058-2.9655079-3.7853574-7.94947455-11.6046057-13.58393965-20.7907886-14.2918351-12.7994786 0-23.2092114 10.4271086-23.2092114 23.2361897zm21.2496198-4.4099973c3.4794699 0 6.29937 2.8220156 6.29937 6.3040959s-2.8199001 6.304096-6.29937 6.304096-6.29937-2.8220157-6.29937-6.304096 2.8199001-6.3040959 6.29937-6.3040959z"/><path d="m99.7447167 15c-5.7331777.0094503-11.1240762 2.2397228-15.1838887 6.2750039-.2567094.2551583-.5324344.5386675-.7986516.8410774l-.0475388.0472515-.0475388.0472515c-14.0524655 14.7897307-16.3723583 36.9034494-16.6670988 46.8168216v5.9725941c10.0496996-.3024098 31.7464022-2.6838872 46.683089-16.7175933.332772-.2929595.656035-.6048197.979299-.9166798 9.783483-9.7243661 9.783483-25.4969287 0-35.2212947-4.183413-4.1581351-9.469726-6.5396125-14.9176713-7.1444322zm1.6258263 29.1447472c-2.4434934 2.4287289-6.4082283 2.4287289-8.8612297 0-2.4434937-2.4287289-2.4434937-6.369507 0-8.8076862 2.4434936-2.428729 6.4082285-2.428729 8.8612297 0 2.443494 2.4381792 2.443494 6.3789573 0 8.8076862z"/></g></g></svg>