<svg enable-background="new 0 0 583.59 78.35" viewBox="0 0 583.59 78.35" xmlns="http://www.w3.org/2000/svg" xmlns:xlink="http://www.w3.org/1999/xlink"><radialGradient id="a" cx="62.4092" cy="81.0116" gradientUnits="userSpaceOnUse" r="70.5154"><stop offset=".3334" stop-color="#fff" stop-opacity=".25"/><stop offset=".6709" stop-color="#fff" stop-opacity="0"/></radialGradient><radialGradient id="b" cx="60.4895" cy="77.709" gradientUnits="userSpaceOnUse" r="70.9707"><stop offset=".3334" stop-color="#fff" stop-opacity=".25"/><stop offset=".7013" stop-color="#fff" stop-opacity="0"/></radialGradient><path d="m43.54 22.41c-9.96-9.96-26.11-9.96-36.07 0s-9.96 26.11 0 36.07c18.03 18.03 54.1 18.03 54.1 18.03s0-36.07-18.03-54.1z" fill="#005253"/><circle cx="25.5" cy="40.44" fill="#fff" opacity=".4" r="6.38"/><path d="m61.57 0c-14.09 0-25.5 11.42-25.5 25.5 0 25.5 25.5 51.01 25.5 51.01s25.5-25.5 25.5-51.01c.01-14.08-11.41-25.5-25.5-25.5z" fill="#ea7363"/><circle cx="61.57" cy="25.5" fill="#fff" opacity=".4" r="6.38"/><path d="m115.67 22.41c-9.96-9.96-26.11-9.96-36.07 0-18.03 18.03-18.03 54.1-18.03 54.1s36.07 0 54.1-18.03c9.96-9.96 9.96-26.11 0-36.07z" fill="#06b594"/><circle cx="97.64" cy="40.44" fill="#fff" opacity=".4" r="6.38"/><path d="m37.25 17.8c-.77 2.43-1.19 5.02-1.19 7.7 0 25.5 25.5 51.01 25.5 51.01s0-36.07-18.03-54.1c-1.89-1.9-4.01-3.43-6.28-4.61z" fill="url(#a)"/><path d="m85.89 17.8c-2.26 1.17-4.39 2.71-6.28 4.61-18.03 18.03-18.03 54.1-18.03 54.1s25.5-25.5 25.5-51.01c0-2.68-.42-5.27-1.19-7.7z" fill="url(#b)"/><g fill="#005253"><path d="m201.91 63.8h-9.97l-11.21-33.04h-.15l-11.2 33.04h-9.97l-17.1-50.94h13.17l9.1 32.75h.15l10.99-32.75h9.9l10.99 32.75h.15l9.1-32.75h13.17z"/><path d="m251.47 46.99c0 10.77-8 17.9-18.92 17.9-10.84 0-18.85-7.13-18.85-17.9s8-17.9 18.85-17.9c10.91 0 18.92 7.13 18.92 17.9zm-26.78 0c0 4.8 3.49 7.86 7.86 7.86 4.44 0 7.86-3.06 7.86-7.86s-3.42-7.86-7.86-7.86c-4.37 0-7.86 3.06-7.86 7.86z"/><path d="m289.45 42.99v20.81h-10.92v-17.76c0-5.02-2.11-7.28-6.18-7.28-3.71 0-6.48 2.18-6.48 8.15v16.89h-10.99v-33.62h10.77v5.09h.15c2.33-3.93 6.26-6.19 10.99-6.19 7.42.01 12.66 4.3 12.66 13.91z"/><path d="m294.04 46.99c0-11.79 7.21-17.9 15.94-17.9 5.46 0 8.88 2.26 10.99 5.68h.15v-21.9h10.99v50.93h-10.99v-4.58h-.15c-2.11 3.42-5.53 5.68-10.99 5.68-8.74-.01-15.94-6.12-15.94-17.91zm26.78 0c0-4.8-3.35-7.86-7.79-7.86-4.37 0-7.71 3.06-7.71 7.86s3.35 7.86 7.71 7.86c4.44 0 7.79-3.06 7.79-7.86z"/><path d="m370.01 47.13v2.47h-24.09c.73 4.22 4.08 6.11 8.59 6.11 4.08 0 7.64-1.67 9.75-3.06l4 8.3c-3.57 2.18-8.15 3.93-13.9 3.93-11.28 0-18.77-7.06-18.77-17.76 0-11.35 7.42-17.97 17.76-17.97 10.11.01 16.66 5.83 16.66 17.98zm-24.02-4h13.39c-.15-3.93-2.84-6.19-6.4-6.19-3.71.01-6.48 1.83-6.99 6.19z"/><path d="m396.86 40.15h-.95c-7.35 0-10.33 2.69-10.33 11.28v12.37h-10.99v-33.62h10.77v6.84h.15c1.96-5.53 5.82-7.86 11.13-7.86h.22z"/><path d="m438.99 29.16c0 9.97-5.89 17.17-18.77 17.17h-6.91v17.47h-11.28v-50.94h18.19c12.88 0 18.77 7.13 18.77 16.3zm-12 .22c0-4.44-3.06-6.26-7.71-6.26h-5.97v13.03h5.97c4.65 0 7.71-2.26 7.71-6.77z"/><path d="m465.05 40.15h-.95c-7.35 0-10.33 2.69-10.33 11.28v12.37h-10.99v-33.62h10.77v6.84h.15c1.96-5.53 5.82-7.86 11.13-7.86h.22z"/><path d="m503.61 46.99c0 10.77-8 17.9-18.92 17.9-10.84 0-18.85-7.13-18.85-17.9s8-17.9 18.85-17.9c10.92 0 18.92 7.13 18.92 17.9zm-26.77 0c0 4.8 3.49 7.86 7.86 7.86 4.44 0 7.86-3.06 7.86-7.86s-3.42-7.86-7.86-7.86c-4.37 0-7.86 3.06-7.86 7.86z"/><path d="m522.75 53.32-7.5 10.48h-12.65l13.46-17.61-12.23-16.01h12.73l6.19 8.88 6.11-8.88h12.73l-12.23 16.01 13.46 17.61h-12.66z"/><path d="m583.59 30.18-22.34 48.17h-11.06l8.44-17.76-15.06-30.42h12.66l7.86 18.56 8.37-18.56h11.13z"/></g></svg>